# File created by Blade
# Date/Time:  Fri Jan 16 19:41:12 2015
# Frame Rate: 120.000 fps
#------------------------------------------------------
:FULLY-SPECIFIED
:DEGREES
1365
root 18.063510 35.489336 -21.695706 9.387387 5.780140 -1.005168
Spine -22.329266 -2.717547 -0.839495
Head 13.429324 -2.626692 1.057759
LeftShoulder -13.966339 -31.631693 22.476457
LeftArm -3.162492 0.435608 -7.162498
LeftForeArm 13.568400 0.000000 -2.428105
LeftHand -4.128302 -0.000000 -4.832345
LeftHandThumb1 -26.253704 0.000000 33.147579
RightShoulder -11.077155 -2.289076 -11.695869
RightArm 0.929298 35.679200 6.623937
RightForeArm -37.803102 -0.000000 5.799985
RightHand -7.706203 0.000000 7.809834
RightHandThumb1 -24.326973 -0.000000 -32.862282
LeftUpLeg -0.383191 4.217045 2.691607
LeftLeg -6.273525 -0.000000 0.000000
LeftFoot -20.490281 26.241798 -14.330631
LeftToeBase 24.654430 -0.000000 -0.000000
RightUpLeg 0.177266 -10.992113 1.113756
RightLeg -4.312359 -0.000000 0.000000
RightFoot -23.064967 -28.480219 17.592879
RightToeBase 22.738166 -0.000000 -0.000000
1366
root 18.064842 35.488818 -21.693362 9.392472 5.798910 -1.008419
Spine -22.327437 -2.749751 -0.818684
Head 13.430636 -2.657439 1.107743
LeftShoulder -13.930462 -31.661578 22.471008
LeftArm -3.152363 0.417736 -7.174375
LeftForeArm 13.550659 -0.000000 -2.436700
LeftHand -4.160921 -0.000000 -4.851186
LeftHandThumb1 -26.253704 0.000000 33.147579
RightShoulder -11.082186 -2.260818 -11.701137
RightArm 0.925947 35.631160 6.627905
RightForeArm -37.743282 -0.000000 5.786732
RightHand -7.689859 -0.000000 7.927532
RightHandThumb1 -24.326973 -0.000000 -32.862282
LeftUpLeg -0.382118 4.207028 2.696099
LeftLeg -6.284944 -0.000000 0.000000
LeftFoot -20.502998 26.230956 -14.345523
LeftToeBase 24.682309 -0.000000 -0.000000
RightUpLeg 0.172783 -10.986593 1.118546
RightLeg -4.301828 -0.000000 0.000000
RightFoot -23.081597 -28.497474 17.626008
RightToeBase 22.708063 -0.000000 -0.000000
1367
root 18.066222 35.488536 -21.692438 9.397493 5.813165 -1.016437
Spine -22.323496 -2.792630 -0.784839
Head 13.436322 -2.711391 1.138032
LeftShoulder -13.921470 -31.689234 22.466367
LeftArm -3.129460 0.443320 -7.180974
LeftForeArm 13.610711 -0.000000 -2.436560
LeftHand -4.093378 -0.000000 -4.964850
LeftHandThumb1 -26.253704 0.000000 33.147579
RightShoulder -11.072685 -2.263241 -11.683012
RightArm 0.940500 35.656324 6.613317
RightForeArm -37.749388 -0.000000 5.752408
RightHand -7.671179 -0.000000 7.969337
RightHandThumb1 -24.326973 -0.000000 -32.862282
LeftUpLeg -0.384218 4.193244 2.705225
LeftLeg -6.291866 -0.000000 0.000000
LeftFoot -20.512456 26.226233 -14.327615
LeftToeBase 24.744346 -0.000000 -0.000000
RightUpLeg 0.161842 -10.961850 1.125953
RightLeg -4.284287 -0.000000 0.000000
RightFoot -23.091239 -28.534300 17.605915
RightToeBase 22.746066 -0.000000 -0.000000
1368
root 18.069115 35.487856 -21.690370 9.398215 5.833989 -1.021903
Spine -22.310865 -2.824184 -0.751245
Head 13.407250 -2.753579 1.159379
LeftShoulder -13.893643 -31.725033 22.476174
LeftArm -3.126355 0.550232 -7.248107
LeftForeArm 13.313866 -0.000000 -2.399100
LeftHand -4.342088 -0.000000 -4.835544
LeftHandThumb1 -26.253704 0.000000 33.147579
RightShoulder -11.083617 -2.254658 -11.668500
RightArm 0.953168 35.663932 6.583942
RightForeArm -37.785248 0.000000 5.707804
RightHand -7.696874 -0.000000 7.942945
RightHandThumb1 -24.326973 -0.000000 -32.862282
LeftUpLeg -0.385817 4.182421 2.710666
LeftLeg -6.288669 -0.000000 0.000000
LeftFoot -20.522668 26.227389 -14.337790
LeftToeBase 24.692061 -0.000000 -0.000000
RightUpLeg 0.163304 -10.943052 1.129223
RightLeg -4.278189 -0.000000 0.000000
RightFoot -23.116161 -28.565439 17.627603
RightToeBase 22.753337 -0.000000 -0.000000
1369
root 18.072614 35.487243 -21.689233 9.398777 5.845787 -1.027132
Spine -22.298914 -2.842396 -0.721581
Head 13.380843 -2.789006 1.187701
LeftShoulder -13.839915 -31.757915 22.460165
LeftArm -3.142186 0.617665 -7.266049
LeftForeArm 13.243200 -0.000000 -2.389850
LeftHand -4.460210 -0.000000 -4.811136
LeftHandThumb1 -26.253704 0.000000 33.147579
RightShoulder -11.092385 -2.236541 -11.650670
RightArm 0.946763 35.693280 6.541110
RightForeArm -37.840672 0.000000 5.672278
RightHand -7.703678 0.000000 8.036749
RightHandThumb1 -24.326973 -0.000000 -32.862282
LeftUpLeg -0.382154 4.170125 2.712306
LeftLeg -6.296270 -0.000000 0.000000
LeftFoot -20.536580 26.209135 -14.360496
LeftToeBase 24.694342 -0.000000 -0.000000
RightUpLeg 0.162500 -10.916717 1.130981
RightLeg -4.270829 -0.000000 0.000000
RightFoot -23.140149 -28.593577 17.643966
RightToeBase 22.771626 -0.000000 -0.000000
1370
root 18.075851 35.486246 -21.687455 9.394068 5.859416 -1.040088
Spine -22.280154 -2.876231 -0.675404
Head 13.345911 -2.810181 1.204523
LeftShoulder -13.800793 -31.776318 22.447125
LeftArm -3.162323 0.584171 -7.265045
LeftForeArm 13.393749 0.000000 -2.402036
LeftHand -4.334610 -0.000000 -4.887253
LeftHandThumb1 -26.253704 0.000000 33.147579
RightShoulder -11.122135 -2.259826 -11.613561
RightArm 1.026627 35.701347 6.521408
RightForeArm -37.801739 -0.000000 5.611600
RightHand -7.741726 -0.000000 8.140994
RightHandThumb1 -24.326973 -0.000000 -32.862282
LeftUpLeg -0.377101 4.166361 2.723533
LeftLeg -6.294537 -0.000000 0.000000
LeftFoot -20.560488 26.186005 -14.362178
LeftToeBase 24.680993 -0.000000 -0.000000
RightUpLeg 0.162078 -10.882598 1.139699
RightLeg -4.249449 -0.000000 0.000000
RightFoot -23.166107 -28.633462 17.659661
RightToeBase 22.755674 -0.000000 -0.000000
1371
root 18.079814 35.485040 -21.686096 9.385585 5.864872 -1.046073
Spine -22.255083 -2.902031 -0.641408
Head 13.307212 -2.837414 1.217425
LeftShoulder -13.764831 -31.768679 22.436289
LeftArm -3.162618 0.559243 -7.283195
LeftForeArm 13.373934 -0.000000 -2.413344
LeftHand -4.393947 0.000000 -4.864333
LeftHandThumb1 -26.253704 0.000000 33.147579
RightShoulder -11.097399 -2.204937 -11.626251
RightArm 0.943903 35.759670 6.485869
RightForeArm -37.916348 -0.000000 5.698742
RightHand -7.821555 -0.000000 8.335216
RightHandThumb1 -24.326973 -0.000000 -32.862282
LeftUpLeg -0.363219 4.134761 2.728032
LeftLeg -6.297328 -0.000000 0.000000
LeftFoot -20.580331 26.199000 -14.360442
LeftToeBase 24.696197 -0.000000 -0.000000
RightUpLeg 0.162983 -10.846940 1.140270
RightLeg -4.231398 -0.000000 0.000000
RightFoot -23.192103 -28.682956 17.664878
RightToeBase 22.788509 -0.000000 -0.000000
1372
root 18.083560 35.484185 -21.685206 9.383660 5.869162 -1.056160
Spine -22.240105 -2.929016 -0.601668
Head 13.268783 -2.843323 1.238538
LeftShoulder -13.742634 -31.785745 22.430391
LeftArm -3.160145 0.621744 -7.293184
LeftForeArm 13.365450 -0.000000 -2.439147
LeftHand -4.372854 -0.000000 -4.831521
LeftHandThumb1 -26.253704 0.000000 33.147579
RightShoulder -11.089698 -2.202420 -11.611859
RightArm 0.939542 35.785357 6.453921
RightForeArm -37.860678 -0.000000 5.704466
RightHand -7.813279 -0.000000 8.608736
RightHandThumb1 -24.326973 -0.000000 -32.862282
LeftUpLeg -0.357965 4.136825 2.734924
LeftLeg -6.302255 -0.000000 0.000000
LeftFoot -20.595809 26.210625 -14.348393
LeftToeBase 24.679615 -0.000000 -0.000000
RightUpLeg 0.149335 -10.832777 1.147169
RightLeg -4.197889 -0.000000 0.000000
RightFoot -23.222229 -28.700753 17.680137
RightToeBase 22.769196 -0.000000 -0.000000
1373
root 18.086797 35.482844 -21.684542 9.376222 5.873395 -1.072099
Spine -22.211846 -2.951101 -0.555809
Head 13.210190 -2.852864 1.251777
LeftShoulder -13.721895 -31.806143 22.437645
LeftArm -3.165934 0.560407 -7.313692
LeftForeArm 13.388528 0.000000 -2.454260
LeftHand -4.349897 -0.000000 -4.812644
LeftHandThumb1 -26.253704 0.000000 33.147579
RightShoulder -11.090416 -2.163947 -11.612245
RightArm 0.932910 35.782399 6.430143
RightForeArm -37.849608 -0.000000 5.688156
RightHand -7.824450 -0.000000 8.710911
RightHandThumb1 -24.326973 -0.000000 -32.862282
LeftUpLeg -0.350912 4.142576 2.747130
LeftLeg -6.301277 -0.000000 0.000000
LeftFoot -20.606313 26.188867 -14.308304
LeftToeBase 24.765973 -0.000000 -0.000000
RightUpLeg 0.145321 -10.804282 1.158535
RightLeg -4.174333 -0.000000 0.000000
RightFoot -23.246198 -28.745710 17.677102
RightToeBase 22.803567 -0.000000 -0.000000
1374
root 18.091398 35.482009 -21.683637 9.371346 5.871314 -1.074605
Spine -22.192476 -2.970880 -0.530313
Head 13.163846 -2.869033 1.265989
LeftShoulder -13.706777 -31.802372 22.446524
LeftArm -3.148365 0.546479 -7.347359
LeftForeArm 13.256444 -0.000000 -2.458978
LeftHand -4.414554 -0.000000 -4.744334
LeftHandThumb1 -26.253704 0.000000 33.147579
RightShoulder -11.090776 -2.166582 -11.588936
RightArm 0.928396 35.821230 6.396806
RightForeArm -37.866543 0.000000 5.674153
RightHand -7.799868 -0.000000 8.769433
RightHandThumb1 -24.326973 -0.000000 -32.862282
LeftUpLeg -0.340971 4.145459 2.743141
LeftLeg -6.305300 -0.000000 0.000000
LeftFoot -20.616020 26.177468 -14.311762
LeftToeBase 24.777923 -0.000000 -0.000000
RightUpLeg 0.135513 -10.785966 1.153886
RightLeg -4.142112 -0.000000 0.000000
RightFoot -23.257085 -28.768165 17.654625
RightToeBase 22.772355 -0.000000 -0.000000
1375
root 18.096661 35.480952 -21.681274 9.355931 5.875063 -1.075947
Spine -22.161438 -3.003597 -0.495944
Head 13.115804 -2.860726 1.296253
LeftShoulder -13.698010 -31.817788 22.446526
LeftArm -3.134604 0.530446 -7.350822
LeftForeArm 13.249660 -0.000000 -2.478397
LeftHand -4.435211 -0.000000 -4.718951
LeftHandThumb1 -26.253704 0.000000 33.147579
RightShoulder -11.084007 -2.116967 -11.592189
RightArm 0.919777 35.805883 6.377453
RightForeArm -37.904015 -0.000000 5.657194
RightHand -7.670332 0.000000 8.734752
RightHandThumb1 -24.326973 -0.000000 -32.862282
LeftUpLeg -0.312678 4.139088 2.739694
LeftLeg -6.317626 -0.000000 0.000000
LeftFoot -20.628599 26.166075 -14.309634
LeftToeBase 24.756996 -0.000000 -0.000000
RightUpLeg 0.146524 -10.788011 1.145853
RightLeg -4.124692 -0.000000 0.000000
RightFoot -23.264519 -28.783074 17.627188
RightToeBase 22.830904 -0.000000 -0.000000
1376
root 18.102670 35.479985 -21.679178 9.341985 5.868804 -1.071649
Spine -22.132653 -3.020548 -0.473037
Head 13.071229 -2.858301 1.321716
LeftShoulder -13.665903 -31.836664 22.431711
LeftArm -3.142888 0.450491 -7.323479
LeftForeArm 13.364557 0.000000 -2.500321
LeftHand -4.385601 -0.000000 -4.753635
LeftHandThumb1 -26.253704 0.000000 33.147579
RightShoulder -11.102136 -2.126050 -11.584059
RightArm 0.953147 35.838238 6.386941
RightForeArm -37.948245 -0.000000 5.664215
RightHand -7.750630 -0.000000 8.820616
RightHandThumb1 -24.326973 -0.000000 -32.862282
LeftUpLeg -0.288043 4.142797 2.726207
LeftLeg -6.326649 -0.000000 0.000000
LeftFoot -20.625784 26.174480 -14.314314
LeftToeBase 24.712328 -0.000000 -0.000000
RightUpLeg 0.156378 -10.777867 1.128926
RightLeg -4.108688 -0.000000 0.000000
RightFoot -23.283948 -28.800120 17.610422
RightToeBase 22.888892 -0.000000 -0.000000
1377
root 18.108365 35.479537 -21.677647 9.338681 5.866142 -1.068814
Spine -22.122466 -3.052882 -0.444113
Head 13.038034 -2.854431 1.341815
LeftShoulder -13.649357 -31.832422 22.419037
LeftArm -3.128779 0.395806 -7.304873
LeftForeArm 13.337994 -0.000000 -2.517071
LeftHand -4.365091 -0.000000 -4.824185
LeftHandThumb1 -26.253704 0.000000 33.147579
RightShoulder -11.092985 -2.133913 -11.572681
RightArm 0.968335 35.848799 6.377006
RightForeArm -37.965491 -0.000000 5.645787
RightHand -7.719414 -0.000000 8.868004
RightHandThumb1 -24.326973 -0.000000 -32.862282
LeftUpLeg -0.274319 4.146708 2.715772
LeftLeg -6.337633 -0.000000 0.000000
LeftFoot -20.629000 26.158860 -14.316062
LeftToeBase 24.715414 -0.000000 -0.000000
RightUpLeg 0.153537 -10.763515 1.117397
RightLeg -4.090369 -0.000000 0.000000
RightFoot -23.283238 -28.820306 17.598359
RightToeBase 22.854490 -0.000000 -0.000000
